<svg width="145" height="14" viewBox="0 0 145 14" fill="current" xmlns="http://www.w3.org/2000/svg">
<path d="M5.85307 0H0V14H16.3226V11.3003H5.85307V0Z" fill="current"/>
<path d="M20.0742 14H36.3968V11.3003H25.9273V8.33058H36.3968V5.63085H25.9273V2.69972H36.3968V0H20.0742V14Z" fill="current"/>
<path d="M58.2838 9.29477L47.6906 0H41.0544V14H46.4129V4.66667L56.7587 14H57.9953H63.6423V0H58.2838V9.29477Z" fill="current"/>
<path d="M139.649 6.36364C140.432 5.70799 140.803 4.8595 140.803 3.81818C140.803 3.0854 140.556 2.42975 140.062 1.92837C139.567 1.427 138.866 1.04132 138.042 0.694215C137.217 0.385675 136.311 0.192837 135.321 0.077135C134.373 0.0385675 133.219 0 131.9 0H120.606V14H126.459V2.58402H130.045C130.746 2.58402 131.323 2.58402 131.859 2.62259C132.395 2.66116 132.848 2.69972 133.219 2.81543C133.796 2.9697 134.167 3.16253 134.415 3.39394C134.662 3.62534 134.744 3.93388 134.744 4.28099C134.744 4.66667 134.662 4.97521 134.456 5.20661C134.291 5.43802 133.961 5.66942 133.59 5.86226C133.178 6.0551 132.642 6.20937 132.024 6.24793C131.406 6.2865 130.622 6.32507 129.716 6.32507H127.531L135.239 14H142.411L136.352 8.02204C137.794 7.55923 138.907 7.01928 139.649 6.36364Z" fill="current"/>
<path d="M102.594 0L94.35 14H100.327L105.768 4.20386L108.117 8.44628H104.572L103.047 11.146H109.642L111.208 14H117.185L108.941 0H102.594Z" fill="current"/>
<path d="M85.5697 9.29477L74.9765 0H68.3403V14H73.6988V4.66667L84.0446 14H85.2812H90.9282V0H85.5697V9.29477Z" fill="current"/>
<path d="M142.369 0.65564H143.234C143.523 0.65564 143.811 0.771351 143.811 1.11848C143.811 1.27277 143.729 1.46562 143.564 1.50419C143.729 1.54276 143.811 1.73561 143.811 1.88989C143.811 1.96703 143.811 2.19846 143.894 2.23703H143.44C143.399 2.19846 143.399 2.04417 143.399 2.0056C143.399 1.85132 143.358 1.69704 143.152 1.69704H142.822V2.2756H142.369V0.65564ZM142.822 1.34991H143.193C143.317 1.34991 143.399 1.27277 143.399 1.15706C143.399 1.04134 143.317 1.00277 143.193 1.00277H142.822V1.34991Z" fill="current"/>
<path fill-rule="evenodd" clip-rule="evenodd" d="M143.11 2.68064C143.828 2.68064 144.409 2.13668 144.409 1.46568C144.409 0.794667 143.828 0.250708 143.11 0.250708C142.393 0.250708 141.812 0.794667 141.812 1.46568C141.812 2.13668 142.393 2.68064 143.11 2.68064ZM143.11 2.93135C143.976 2.93135 144.677 2.27515 144.677 1.46568C144.677 0.656205 143.976 0 143.11 0C142.245 0 141.544 0.656205 141.544 1.46568C141.544 2.27515 142.245 2.93135 143.11 2.93135Z" fill="current"/>
</svg>
